<?xml version="1.0" ?><svg xmlns="http://www.w3.org/2000/svg" id="Layer_2" data-name="Layer 2" viewBox="0 0 32 32"><defs><style>.cls-1{fill:none;stroke:#000;stroke-linecap:round;stroke-linejoin:round;stroke-width:2px;}</style></defs><path class="cls-1" d="M13.58,9.26,11.91,7.59a2,2,0,0,0-2.82,0h0a7.11,7.11,0,0,0-.34,9.71h0a59.68,59.68,0,0,0,5.95,5.95h0a7.11,7.11,0,0,0,9.71-.34h0a2,2,0,0,0,0-2.82l-1.67-1.67a2,2,0,0,0-2.46-.29l-.74.47a1.9,1.9,0,0,1-2.07-.05l-.09-.06a14.84,14.84,0,0,1-3.85-3.85l0-.05a2,2,0,0,1-.05-2.18l.43-.69A2,2,0,0,0,13.58,9.26Z"/></svg>